<?xml version="1.0" standalone="no"?>
<!DOCTYPE svg PUBLIC "-//W3C//DTD SVG 1.1//EN" "http://www.w3.org/Graphics/SVG/1.1/DTD/svg11.dtd" >
<svg xmlns="http://www.w3.org/2000/svg" xmlns:xlink="http://www.w3.org/1999/xlink" version="1.1">
<metadata>
Created by FontForge 20161013 at Wed Feb  1 07:30:58 2012
 By ,,,
Copyright 2001 Double Alex Font Studio.
</metadata>
<defs>
<font id="PlumbCondensed-Regular" horiz-adv-x="362" >
  <font-face 
    font-family="PlumbCondensed"
    font-weight="400"
    font-stretch="normal"
    units-per-em="1000"
    panose-1="2 0 5 6 4 0 0 2 0 3"
    ascent="800"
    descent="-200"
    x-height="491"
    cap-height="712"
    bbox="-18 -227 1000 876"
    underline-thickness="50"
    underline-position="-150"
    unicode-range="U+0020-2265"
  />
<missing-glyph horiz-adv-x="1000" 
 />
    <glyph glyph-name=".notdef" horiz-adv-x="1000" 
 />
    <glyph glyph-name=".null" horiz-adv-x="0" 
 />
    <glyph glyph-name="nonmarkingreturn" horiz-adv-x="173" 
 />
    <glyph glyph-name="space" unicode=" " horiz-adv-x="173" 
 />
    <glyph glyph-name="exclam" unicode="!" horiz-adv-x="226" 
d="M176 47q0 -23 -15 -38t-37 -15q-21 0 -36.5 15t-15.5 37q0 21 15.5 36.5t36.5 15.5q22 0 37 -15.5t15 -35.5zM153 197h-58l-11 515h80z" />
    <glyph glyph-name="quotedbl" unicode="&#x22;" horiz-adv-x="310" 
d="M53 539v173h64v-173h-64zM193 539v173h65v-173h-65z" />
    <glyph glyph-name="numbersign" unicode="#" horiz-adv-x="434" 
d="M273 434h-94l-15 -144h93zM403 434h-71l-15 -144h64v-63h-71l-25 -227h-60l25 227h-93l-25 -227h-60l25 227h-66v63h73l16 144h-68v63h75l23 215h60l-24 -215h94l23 215h60l-24 -215h64v-63z" />
    <glyph glyph-name="dollar" unicode="$" horiz-adv-x="400" 
d="M293 188q0 38 -4.5 61.5t-18.5 40.5q-8 11 -18.5 17.5t-27.5 14.5v-259q36 8 52.5 36.5t16.5 88.5zM179 651q-35 -5 -51 -31.5t-16 -80.5q0 -32 4.5 -53.5t15.5 -35.5q8 -11 18.5 -18t28.5 -14v233zM366 191q0 -95 -35.5 -140.5t-99.5 -54.5v-110h-59v109
q-66 6 -102.5 48.5t-39.5 119.5h71q4 -52 23.5 -75t54.5 -26v276l-6 2q-40 13 -60.5 26t-37.5 35q-20 25 -27 58t-7 78q0 83 34 127t97 52v90h59v-89q57 -7 90 -43.5t38 -116.5h-72q-2 44 -16.5 66.5t-46.5 27.5v-249l5 -2q37 -15 58.5 -25.5t38.5 -29.5q22 -26 31 -62.5
t9 -91.5z" />
    <glyph glyph-name="percent" unicode="%" horiz-adv-x="569" 
d="M480 244q0 38 -10 55.5t-36 17.5t-37 -17.5t-11 -55.5v-126q0 -38 11 -55.5t37 -17.5q25 0 35.5 17.5t10.5 55.5v126zM183 593q0 38 -11 56t-37 18t-36.5 -17.5t-10.5 -56.5v-125q0 -38 10.5 -55.5t36.5 -17.5t37 17.5t11 55.5v125zM535 118q0 -62 -26.5 -93.5
t-74.5 -31.5t-75 31.5t-27 93.5v126q0 63 27 94t75 31t74.5 -31t26.5 -94v-126zM196 0h-56l231 712h57zM237 467q0 -62 -26.5 -93t-75.5 -31q-48 0 -74.5 31t-26.5 93v127q0 62 26.5 93.5t74.5 31.5q49 0 75.5 -31.5t26.5 -93.5v-127z" />
    <glyph glyph-name="ampersand" unicode="&#x26;" horiz-adv-x="507" 
d="M185 346q-15 -12 -29 -26t-25 -31.5t-18 -40t-7 -51.5q0 -64 28.5 -101t82.5 -37q34 0 59.5 10.5t44.5 33.5zM292 576q0 41 -17 60.5t-49 19.5q-65 0 -65 -79q0 -34 11 -61t32 -64l4 -7l29 26q25 23 40 46.5t15 58.5zM378 0l-25 45q-26 -24 -60.5 -37.5t-78.5 -13.5
q-78 0 -127.5 51.5t-49.5 147.5q0 40 10.5 71t27 55t38 43t42.5 37l-8 14q-11 20 -21 38.5t-17.5 37.5t-11.5 40t-4 46q0 66 36 104.5t98 38.5q58 0 94.5 -36.5t36.5 -104.5q0 -47 -23.5 -83.5t-60.5 -68.5l-37 -32l121 -218q21 69 21 176h66q-1 -72 -11.5 -135t-36.5 -111
l58 -105h-77z" />
    <glyph glyph-name="quotesingle" unicode="'" horiz-adv-x="170" 
d="M53 539v173h64v-173h-64z" />
    <glyph glyph-name="parenleft" unicode="(" horiz-adv-x="263" 
d="M168 -92q-23 22 -42 41.5t-30 42.5q-14 26 -16.5 51.5t-2.5 51.5v522q0 26 2.5 51.5t16.5 50.5q13 24 30.5 43t41.5 42l47 -50q-18 -17 -31 -30.5t-24 -33.5q-8 -15 -10.5 -34.5t-2.5 -44.5v-510q0 -25 2.5 -45.5t10.5 -34.5q11 -19 24 -32.5t31 -30.5z" />
    <glyph glyph-name="parenright" unicode=")" horiz-adv-x="263" 
d="M186 95q0 -26 -2.5 -51.5t-16.5 -51.5q-11 -23 -29.5 -42.5t-42.5 -41.5l-47 50q18 17 31 30.5t24 32.5q8 14 10.5 34.5t2.5 45.5v510q0 25 -2.5 44.5t-10.5 34.5q-11 20 -24 33.5t-31 30.5l47 50q24 -23 41.5 -42t30.5 -43q14 -25 16.5 -50.5t2.5 -51.5v-522z" />
    <glyph glyph-name="asterisk" unicode="*" horiz-adv-x="358" 
d="M288 445l-86 64q0 -8 1 -19q0 -9 0.5 -20.5t1.5 -22.5q1 -27 3 -62h-58l6 124l-84 -64l-34 48l101 58l-101 57l34 48l84 -63l-6 123h58q-2 -35 -3 -62l-2 -62l85 64l33 -48l-102 -57l102 -58z" />
    <glyph glyph-name="plus" unicode="+" horiz-adv-x="359" 
d="M212 236v-128h-66v128h-116v63h116v127h66v-127h115v-63h-115z" />
    <glyph glyph-name="comma" unicode="," horiz-adv-x="216" 
d="M96 -108h-59l48 194h85z" />
    <glyph glyph-name="hyphen" unicode="-" horiz-adv-x="272" 
d="M47 238v63h178v-63h-178z" />
    <glyph glyph-name="hyphen" unicode="&#xad;" horiz-adv-x="272" 
d="M47 238v63h178v-63h-178z" />
    <glyph glyph-name="period" unicode="." horiz-adv-x="216" 
d="M159 47q0 -23 -15 -38t-37 -15q-21 0 -36.5 15t-15.5 37q0 21 15.5 36.5t36.5 15.5q22 0 37 -15.5t15 -35.5z" />
    <glyph glyph-name="slash" unicode="/" horiz-adv-x="261" 
d="M64 -74h-66l200 860h66z" />
    <glyph glyph-name="zero" unicode="0" 
d="M262 541q0 59 -17.5 86.5t-58.5 27.5q-42 0 -59 -27.5t-17 -86.5v-370q0 -59 17 -86.5t59 -27.5q41 0 58.5 27.5t17.5 86.5v370zM331 167q0 -45 -11 -77.5t-30.5 -53.5t-46 -31.5t-57.5 -10.5q-63 0 -104 42t-41 131v378q0 89 41 131t104 42q31 0 57.5 -10.5t46 -31.5
t30.5 -53.5t11 -77.5v-378z" />
    <glyph glyph-name="one" unicode="1" 
d="M172 0v624l-93 -106v88l93 106h69v-712h-69z" />
    <glyph glyph-name="two" unicode="2" 
d="M324 546q0 -51 -14 -92t-37 -85l-163 -305h208v-64h-285v64l184 341q18 33 27.5 66t9.5 75q0 56 -15 82.5t-57 26.5q-18 0 -33 -6t-25.5 -20.5t-16.5 -39.5t-6 -63h-68q0 97 38 144.5t111 47.5q70 0 106 -40.5t36 -131.5z" />
    <glyph glyph-name="three" unicode="3" 
d="M330 170q0 -48 -11 -81.5t-31 -54.5t-48 -30.5t-62 -9.5q-35 0 -63 9.5t-48.5 31t-31.5 55.5t-11 82v15h69v-9q0 -66 20.5 -93.5t64.5 -27.5t63.5 27.5t19.5 93.5v38q0 61 -22 89t-73 28h-16v63h16q45 0 65.5 26.5t20.5 84.5v36q0 63 -16.5 88t-58.5 25t-60 -25t-18 -88
v-14h-69v17q0 92 40 132.5t107 40.5t105.5 -39t38.5 -130v-48q0 -48 -18 -84t-60 -51q87 -23 87 -145v-52z" />
    <glyph glyph-name="four" unicode="4" 
d="M293 113v-113h-68v113h-200v63l179 536h70l-179 -536h130v194h68v-194h48v-63h-48z" />
    <glyph glyph-name="five" unicode="5" 
d="M331 175q0 -32 -5.5 -64t-21 -58t-43.5 -42.5t-73 -16.5q-79 0 -111.5 44.5t-34.5 129.5h69q1 -29 4.5 -50t11.5 -34.5t23 -20t38 -6.5q24 0 38.5 10t22.5 27t10.5 40t2.5 49v98q0 67 -13.5 97t-58.5 30q-66 0 -76 -71h-64v375h267v-64h-205v-219q13 20 34.5 30.5
t54.5 10.5q39 0 64 -13t40 -36.5t20.5 -57t5.5 -74.5v-114z" />
    <glyph glyph-name="six" unicode="6" 
d="M267 202q0 40 -3.5 67.5t-13.5 44.5t-26.5 24.5t-41.5 7.5q-48 0 -66 -33.5t-18 -110.5q0 -39 3.5 -67t13 -45t26 -25t41.5 -8t41.5 8t26.5 25t13.5 45t3.5 67zM336 206q0 -116 -38 -164t-116 -48q-76 0 -114.5 47.5t-38.5 157.5q0 38 4.5 68t12.5 57t19 53.5t24 57.5
l113 277h73l-131 -320q8 6 20 10.5t32 4.5q32 0 58 -10t44 -33.5t28 -62t10 -95.5z" />
    <glyph glyph-name="seven" unicode="7" 
d="M162 0h-69l169 648h-162v-108h-68v172h299v-64z" />
    <glyph glyph-name="eight" unicode="8" 
d="M271 196q0 40 -5 66.5t-15.5 43t-28 23.5t-41.5 7q-25 0 -42 -7t-27.5 -23.5t-15.5 -43t-5 -66.5t4.5 -66.5t15 -43t27.5 -23.5t43 -7q25 0 42.5 7t28 23.5t15 43t4.5 66.5zM262 527q0 68 -17 98.5t-64 30.5t-64 -30.5t-17 -98.5q0 -70 17.5 -99t63.5 -29t63.5 29
t17.5 99zM340 194q0 -57 -10.5 -95.5t-31 -61.5t-50 -33t-67.5 -10t-68 10t-50 33t-30.5 61.5t-10.5 95.5q0 42 5.5 71.5t15.5 50t23 33.5t28 21q-29 17 -46 53t-17 107q0 103 39 145.5t111 42.5q71 0 110.5 -42.5t39.5 -145.5q0 -35 -4.5 -61.5t-13 -45.5t-20 -31.5
t-26.5 -21.5q15 -9 28.5 -21.5t23.5 -33t15.5 -50t5.5 -71.5z" />
    <glyph glyph-name="nine" unicode="9" 
d="M266 510q0 39 -3.5 67t-13 45t-26 25t-41.5 8q-26 0 -42 -8t-25.5 -25t-13 -45t-3.5 -67q0 -40 3.5 -67.5t13 -44.5t25.5 -24.5t42 -7.5q48 0 66 33.5t18 110.5zM335 513q0 -38 -4.5 -68.5t-13 -57.5t-19.5 -53t-23 -57l-112 -277h-74l131 320q-8 -6 -20 -10.5t-32 -4.5
q-32 0 -58 10t-44 33.5t-28 62t-10 95.5q0 116 38 164t116 48q76 0 114.5 -47.5t38.5 -157.5z" />
    <glyph glyph-name="colon" unicode=":" horiz-adv-x="216" 
d="M160 47q0 -23 -15 -38t-37 -15q-21 0 -36.5 15t-15.5 37q0 21 15.5 36.5t36.5 15.5t36.5 -15.5t15.5 -35.5zM160 407q0 -23 -15 -38t-37 -15q-21 0 -36.5 15t-15.5 36q0 22 15.5 37t36.5 15t36.5 -15t15.5 -35z" />
    <glyph glyph-name="semicolon" unicode=";" horiz-adv-x="216" 
d="M92 -108h-59l48 194h85zM165 407q0 -23 -15.5 -38t-36.5 -15t-36.5 15t-15.5 36q0 22 15.5 37t36.5 15t36.5 -15t15.5 -35z" />
    <glyph glyph-name="semicolon" unicode="&#x37e;" horiz-adv-x="216" 
d="M92 -108h-59l48 194h85zM165 407q0 -23 -15.5 -38t-36.5 -15t-36.5 15t-15.5 36q0 22 15.5 37t36.5 15t36.5 -15t15.5 -35z" />
    <glyph glyph-name="less" unicode="&#x3c;" 
d="M30 234v74l300 120v-74l-217 -83l217 -83v-74z" />
    <glyph glyph-name="equal" unicode="=" 
d="M36 152v64h291v-64h-291zM36 322v65h291v-65h-291z" />
    <glyph glyph-name="greater" unicode="&#x3e;" 
d="M30 114v74l217 83l-217 83v74l300 -120v-74z" />
    <glyph glyph-name="question" unicode="?" horiz-adv-x="341" 
d="M227 47q0 -23 -15.5 -38t-36.5 -15t-36.5 15t-15.5 37q0 21 15.5 36.5t36.5 15.5t36.5 -15.5t15.5 -35.5zM322 549q0 -83 -36 -140l-68 -105q-8 -11 -10.5 -22.5t-2.5 -34.5v-51h-69v51q0 30 4 49t18 40l69 106q14 22 20 48t6 59q0 57 -17 80.5t-55 23.5q-39 0 -58 -25.5
t-20 -92.5h-69q2 98 41.5 140.5t105.5 42.5q64 0 102.5 -39.5t38.5 -129.5z" />
    <glyph glyph-name="at" unicode="@" horiz-adv-x="492" 
d="M382 314q0 32 -4.5 52.5t-13.5 32.5t-21.5 17t-28.5 5t-28.5 -5t-21 -17t-13 -32.5t-4.5 -52.5v-154q0 -63 15 -84.5t47 -21.5q16 0 29.5 4.5t23 16.5t15 32.5t5.5 52.5v154zM381 0v36q-14 -20 -33 -31t-53 -11q-57 0 -86 37.5t-29 121.5v170q0 83 29.5 120.5t85.5 37.5
q35 0 53 -9.5t33 -27.5v72q0 30 -4 55t-16 42.5t-33.5 27t-55.5 9.5h-51q-34 0 -55.5 -9.5t-33.5 -27.5t-16 -42.5t-4 -54.5v-366q0 -24 1.5 -40t5.5 -28.5t11.5 -23.5t20.5 -25l-49 -42q-17 16 -27.5 30.5t-17.5 32t-9.5 40t-2.5 54.5v367q0 43 8.5 79.5t28.5 63t52.5 41
t80.5 14.5h63q48 0 80.5 -14.5t52.5 -41t28.5 -63t8.5 -79.5v-515h-67z" />
    <glyph glyph-name="A" unicode="A" horiz-adv-x="418" 
d="M286 213q-5 22 -10 46q-5 20 -11 46t-12 54q-15 64 -33 147l-13 71l-13 -71l-64 -293h156zM335 0l-34 150h-185l-33 -150h-72l165 712h64l168 -712h-73z" />
    <glyph glyph-name="B" unicode="B" horiz-adv-x="448" 
d="M338 199q0 30 -5 54.5t-18.5 42t-36.5 27t-60 9.5h-76v-266h76q36 0 59 9.5t36.5 26.5t19 42t5.5 55zM329 521q0 66 -24.5 95.5t-91.5 29.5h-71v-249h74q35 0 57 8.5t34.5 24.5t17 39t4.5 52zM411 188q0 -93 -47 -140.5t-140 -47.5h-156v712h151q96 0 140 -45t44 -136
v-19q0 -54 -21.5 -93.5t-61.5 -52.5q38 -11 64.5 -52.5t26.5 -105.5v-20z" />
    <glyph glyph-name="C" unicode="C" horiz-adv-x="423" 
d="M388 196q-4 -202 -167 -202q-33 0 -63.5 9t-54.5 32.5t-38.5 63t-14.5 101.5v312q0 61 14.5 101t38.5 63.5t55 32.5t63 9q35 0 65 -9.5t52.5 -32t35.5 -60t14 -93.5h-74q-2 62 -20.5 95t-72.5 33q-20 0 -37.5 -5t-30.5 -20.5t-21 -44.5t-8 -77v-295q0 -48 8 -77t21 -45
t30.5 -21t37.5 -5q48 0 69.5 30t23.5 105h74z" />
    <glyph glyph-name="D" unicode="D" horiz-adv-x="457" 
d="M334 498q0 45 -9 73.5t-24.5 45t-37.5 23t-48 6.5h-73v-580h74q58 0 88 37.5t30 109.5v285zM407 204q0 -95 -46 -149.5t-137 -54.5h-156v712h155q40 0 74 -11t58.5 -35t38 -63t13.5 -96v-303z" />
    <glyph glyph-name="E" unicode="E" horiz-adv-x="388" 
d="M60 0v712h299v-66h-225v-253h187v-66h-187v-261h227v-66h-301z" />
    <glyph glyph-name="F" unicode="F" horiz-adv-x="385" 
d="M134 646v-264h186v-66h-186v-316h-74v712h299v-66h-225z" />
    <glyph glyph-name="G" unicode="G" horiz-adv-x="442" 
d="M394 203q0 -62 -14.5 -102.5t-38.5 -64t-55 -33t-64 -9.5t-64 9t-55 32.5t-38.5 63t-14.5 101.5v312q0 61 14.5 101t38.5 63.5t55 32.5t63 9t61.5 -9t52.5 -30.5t37.5 -58.5t16.5 -94h-75q-2 68 -24 96.5t-69 28.5q-20 0 -37.5 -5t-30.5 -20.5t-21 -44.5t-8 -77v-295
q0 -48 8 -77.5t21.5 -45t31 -20.5t37.5 -5q21 0 39 5t31.5 21t21 45.5t7.5 78.5v96h-104v65h177v-169z" />
    <glyph glyph-name="H" unicode="H" horiz-adv-x="481" 
d="M339 0v326h-197v-326h-74v712h74v-319h197v319h74v-712h-74z" />
    <glyph glyph-name="I" unicode="I" horiz-adv-x="214" 
d="M70 0v712h74v-712h-74z" />
    <glyph glyph-name="J" unicode="J" horiz-adv-x="377" 
d="M313 199q0 -56 -10.5 -95t-30.5 -63.5t-48 -35.5t-63 -11q-27 0 -49.5 7t-40 18.5t-31 26.5t-23.5 31l59 40q12 -18 31 -37t53 -19q21 0 36 7.5t24.5 24.5t14 46t4.5 71v502h74v-513z" />
    <glyph glyph-name="K" unicode="K" horiz-adv-x="440" 
d="M353 0l-146 349l-65 -117v-232h-74v712h74v-360l195 360h75l-157 -285l177 -427h-79z" />
    <glyph glyph-name="L" unicode="L" horiz-adv-x="384" 
d="M68 0v712h74v-646h225v-66h-299z" />
    <glyph glyph-name="M" unicode="M" horiz-adv-x="571" 
d="M433 0v444l3 83l-16 -60l-106 -352h-54l-109 352l-15 60l2 -83v-444h-70v712h72l147 -492l144 492h72v-712h-70z" />
    <glyph glyph-name="N" unicode="N" horiz-adv-x="498" 
d="M362 0l-207 498l-20 57l3 -64v-491h-70v712h68l206 -496l20 -60l-2 66v490h69v-712h-67z" />
    <glyph glyph-name="O" unicode="O" horiz-adv-x="443" 
d="M320 504q0 48 -8 77t-21.5 44.5t-31 20.5t-37.5 5t-37.5 -5t-31 -20.5t-21.5 -44.5t-8 -77v-295q0 -48 8 -77t21.5 -45t31 -21t37.5 -5t37.5 5t31 21t21.5 45t8 77v295zM393 200q0 -62 -14.5 -101.5t-38.5 -63t-54.5 -32.5t-63.5 -9t-64 9t-55 32.5t-38.5 63t-14.5 101.5
v312q0 61 14.5 101t38.5 63.5t55 32.5t64 9t63.5 -9t54.5 -32.5t38.5 -63.5t14.5 -101v-312z" />
    <glyph glyph-name="P" unicode="P" horiz-adv-x="436" 
d="M332 511q0 71 -24 103t-88 32h-78v-287h78q62 0 87 31.5t25 103.5v17zM405 488q0 -195 -177 -195h-86v-293h-74v712h160q177 0 177 -195v-29z" />
    <glyph glyph-name="Q" unicode="Q" horiz-adv-x="444" 
d="M320 504q0 48 -8 77t-21.5 44.5t-31 20.5t-37.5 5t-37.5 -5t-31 -20.5t-21.5 -44.5t-8 -77v-295q0 -48 8 -77t21.5 -45t31 -21t37.5 -5t33 4l-62 66l50 47q17 -19 31 -33q6 -7 11 -12.5t10 -10.5l10 -10q15 33 15 97v295zM362 -49l-57 61q-19 -10 -40 -14t-43 -4
q-33 0 -64 9t-55 32.5t-38.5 63t-14.5 101.5v312q0 61 14.5 101t38.5 63.5t55 32.5t64 9t64 -9t55 -32.5t38.5 -63.5t14.5 -101v-312q0 -49 -10 -84t-27 -59q11 -11 21 -21.5t18 -18.5q10 -10 18 -19z" />
    <glyph glyph-name="R" unicode="R" horiz-adv-x="447" 
d="M329 519q0 67 -24 97t-78 30h-86v-266h86q49 0 75.5 29.5t26.5 97.5v12zM343 0l-123 317h-79v-317h-73v712h170q85 0 125.5 -50t40.5 -134v-24q0 -77 -30 -118.5t-81 -58.5l128 -327h-78z" />
    <glyph glyph-name="S" unicode="S" horiz-adv-x="400" 
d="M366 191q0 -108 -45 -152.5t-127 -44.5q-77 0 -119 43t-45 126h72q4 -58 27 -79.5t66 -21.5q52 0 75 29t23 97q0 38 -4.5 61t-18.5 41q-10 12 -22.5 20t-37.5 17l-37 13q-40 14 -60.5 26.5t-37.5 34.5q-20 25 -27 58t-7 78q0 93 41.5 137t119.5 44q70 0 110.5 -35.5
t46.5 -125.5h-72q-3 51 -22 73.5t-64 22.5q-46 0 -67 -27t-21 -87q0 -31 4 -52.5t15 -35.5q10 -14 23 -21.5t39 -16.5l35 -12q38 -13 59 -25t38 -31q22 -26 31 -62.5t9 -91.5z" />
    <glyph glyph-name="T" unicode="T" horiz-adv-x="366" 
d="M219 646v-646h-73v646h-132v66h337v-66h-132z" />
    <glyph glyph-name="U" unicode="U" horiz-adv-x="467" 
d="M404 197q0 -108 -44 -155.5t-126 -47.5q-83 0 -127 47t-44 156v515h73v-510q0 -79 23.5 -110t74.5 -31t74 31t23 110v510h73v-515z" />
    <glyph glyph-name="V" unicode="V" horiz-adv-x="409" 
d="M237 0h-62l-166 712h75l108 -490l15 -88l15 88l104 490h73z" />
    <glyph glyph-name="W" unicode="W" horiz-adv-x="590" 
d="M461 0h-66l-90 485l-13 84l-12 -84l-89 -485h-66l-117 712h75l70 -468l11 -94l13 94l84 468h63l86 -468l13 -94l11 94l68 468h74z" />
    <glyph glyph-name="X" unicode="X" horiz-adv-x="386" 
d="M305 0l-97 243l-17 52l-17 -52l-95 -243h-76l151 369l-140 343h78l83 -211l19 -58l19 58l83 211h75l-140 -343l152 -369h-78z" />
    <glyph glyph-name="Y" unicode="Y" horiz-adv-x="382" 
d="M228 286v-286h-74v286l-149 426h76l89 -268l21 -75l20 75l89 268h77z" />
    <glyph glyph-name="Z" unicode="Z" horiz-adv-x="372" 
d="M32 0v68l230 578h-221v66h299v-64l-232 -582h232v-66h-308z" />
    <glyph glyph-name="bracketleft" unicode="[" horiz-adv-x="253" 
d="M73 -74v860h150v-63h-81v-734h81v-63h-150z" />
    <glyph glyph-name="backslash" unicode="\" horiz-adv-x="262" 
d="M198 -74l-200 860h66l200 -860h-66z" />
    <glyph glyph-name="bracketright" unicode="]" horiz-adv-x="253" 
d="M29 -74v63h81v734h-81v63h150v-860h-150z" />
    <glyph glyph-name="asciicircum" unicode="^" 
d="M258 413l-78 219l-79 -219h-65l116 305h55l117 -305h-66z" />
    <glyph glyph-name="underscore" unicode="_" horiz-adv-x="377" 
d="M0 -165v51h377v-51h-377z" />
    <glyph glyph-name="grave" unicode="`" horiz-adv-x="472" 
d="M218 594l-86 153h70l69 -153h-53z" />
    <glyph glyph-name="a" unicode="a" horiz-adv-x="363" 
d="M243 227h-68q-36 0 -55.5 -19.5t-19.5 -66.5q0 -86 65 -86q19 0 33.5 6t28.5 26q16 24 16 84v56zM243 0v48q-14 -25 -37.5 -38t-52.5 -13t-53 9.5t-39 29.5t-21.5 45.5t-6.5 57.5q0 71 37.5 106.5t97.5 35.5h75v79q0 44 -16 58.5t-45 14.5t-47.5 -16.5t-21.5 -54.5h-67
q1 35 13 60t31 41.5t43.5 24t50.5 7.5q60 0 94 -31t34 -95v-369h-69z" />
    <glyph glyph-name="b" unicode="b" horiz-adv-x="375" 
d="M268 323q0 63 -19 86.5t-53 23.5q-35 0 -55 -24.5t-20 -85.5v-157q0 -61 20 -85.5t55 -24.5q34 0 53 23.5t19 86.5v157zM337 159q0 -27 -5 -54.5t-14 -47.5q-29 -63 -103 -63q-37 0 -58.5 12.5t-35.5 36.5v-43h-69v712h69v-269q14 23 36 37.5t60 14.5q71 0 101 -65
q19 -43 19 -98v-173z" />
    <glyph glyph-name="c" unicode="c" horiz-adv-x="339" 
d="M312 140q-2 -66 -35.5 -106t-101.5 -40q-29 0 -54 9.5t-43.5 30t-29 52.5t-10.5 77v163q0 88 39 128.5t98 40.5q63 0 98.5 -34t37.5 -110h-68q-3 43 -17.5 62.5t-50.5 19.5q-31 0 -49.5 -23t-18.5 -87v-156q0 -32 5 -53.5t14 -34.5t21.5 -18t27.5 -5q35 0 50.5 20.5
t17.5 63.5h69z" />
    <glyph glyph-name="d" unicode="d" horiz-adv-x="375" 
d="M255 323q0 61 -20.5 85.5t-55.5 24.5q-33 0 -52.5 -23.5t-19.5 -86.5v-157q0 -63 19.5 -86.5t52.5 -23.5q35 0 55.5 24.5t20.5 85.5v157zM254 0v43q-14 -24 -35.5 -36.5t-58.5 -12.5q-75 0 -103 63q-9 20 -14 47.5t-5 54.5v173q0 55 19 98q28 65 101 65q39 0 60.5 -14.5
t35.5 -37.5v269h69v-712h-69z" />
    <glyph glyph-name="e" unicode="e" horiz-adv-x="355" 
d="M249 325q0 63 -17 86.5t-53 23.5q-35 0 -54 -23.5t-19 -90.5v-42h143v46zM106 224v-52q0 -68 20 -92.5t55 -24.5q34 0 49.5 17t17.5 59h67q-3 -64 -35.5 -100.5t-98.5 -36.5q-64 0 -103.5 40.5t-39.5 133.5v154q0 92 39 132.5t102 40.5q66 0 102 -40t36 -129v-102h-211z
" />
    <glyph glyph-name="f" unicode="f" horiz-adv-x="215" 
d="M133 437v-437h-69v437h-47v54h47v113q0 52 26 80t74 28h38v-63h-26q-23 0 -33 -12t-10 -41v-105h69v-54h-69z" />
    <glyph glyph-name="g" unicode="g" horiz-adv-x="372" 
d="M255 323q0 61 -20.5 85.5t-55.5 24.5q-33 0 -52.5 -23.5t-19.5 -86.5v-152q0 -62 19.5 -86t52.5 -24q35 0 55.5 25t20.5 85v152zM323 -55q0 -48 -9.5 -81t-28 -53.5t-44.5 -29t-59 -8.5q-60 0 -96.5 32.5t-40.5 98.5h68q2 -32 16.5 -51t52.5 -19q37 0 54.5 25.5
t17.5 90.5v99q-14 -25 -35.5 -37.5t-58.5 -12.5q-75 0 -103 63q-9 21 -14 48t-5 54v168q0 55 19 98q28 65 101 65q39 0 60.5 -14.5t35.5 -37.5v48h69v-546z" />
    <glyph glyph-name="h" unicode="h" horiz-adv-x="378" 
d="M258 0v352q0 44 -15 61.5t-47 17.5q-35 0 -54 -19t-19 -60v-352h-69v712h69v-268q11 21 33 36t60 15q58 0 84.5 -35t26.5 -91v-369h-69z" />
    <glyph glyph-name="i" unicode="i" horiz-adv-x="191" 
d="M60 0v491h71v-491h-71zM143 671q0 -20 -13.5 -34.5t-33.5 -14.5t-34 14t-14 33q0 20 14 34t33 14q20 0 34 -13.5t14 -32.5z" />
    <glyph glyph-name="j" unicode="j" horiz-adv-x="192" 
d="M135 -101q0 -54 -26.5 -86.5t-83.5 -32.5h-24v62h15q28 0 38.5 15t10.5 45v589h70v-592zM146 671q0 -20 -13.5 -34.5t-33.5 -14.5t-34 14t-14 33q0 20 13.5 34t33.5 14q19 0 33.5 -13.5t14.5 -32.5z" />
    <glyph glyph-name="k" unicode="k" horiz-adv-x="363" 
d="M272 0l-103 241l-4.5 -7t-11.5 -18.5t-15.5 -25.5t-16.5 -27v-163h-67v712h67v-445l134 224h72l-111 -184l129 -307h-73z" />
    <glyph glyph-name="l" unicode="l" horiz-adv-x="191" 
d="M61 0v712h69v-712h-69z" />
    <glyph glyph-name="m" unicode="m" horiz-adv-x="583" 
d="M463 0v352q0 44 -15 61.5t-48 17.5q-35 0 -54 -19t-19 -60v-352h-69v352q0 44 -15 61.5t-47 17.5q-35 0 -54 -19t-19 -60v-352h-69v491h69v-47q12 21 33.5 36t59.5 15q69 0 94 -53q20 28 45.5 40.5t65.5 12.5q57 0 84 -35t27 -91v-369h-69z" />
    <glyph glyph-name="n" unicode="n" horiz-adv-x="378" 
d="M258 0v352q0 44 -15 61.5t-47 17.5q-35 0 -54 -19t-19 -60v-352h-69v491h69v-47q11 21 33 36t60 15q58 0 84.5 -35t26.5 -91v-369h-69z" />
    <glyph glyph-name="o" unicode="o" horiz-adv-x="359" 
d="M252 324q0 63 -19 86t-54 23t-53.5 -23t-18.5 -86v-158q0 -64 18.5 -87t53.5 -23t54 23t19 87v158zM321 162q0 -89 -39 -128.5t-103 -39.5q-63 0 -102 39.5t-39 128.5v166q0 87 39 127t102 40q64 0 103 -40t39 -127v-166z" />
    <glyph glyph-name="p" unicode="p" horiz-adv-x="377" 
d="M270 323q0 63 -19.5 86.5t-52.5 23.5q-35 0 -55.5 -24.5t-20.5 -85.5v-157q0 -61 20.5 -85.5t55.5 -24.5q33 0 52.5 23.5t19.5 86.5v157zM339 159q0 -27 -5 -54.5t-14 -47.5q-28 -63 -103 -63q-37 0 -58.5 12.5t-35.5 36.5v-264h-69v712h69v-48q14 23 35.5 37.5
t60.5 14.5q73 0 101 -65q19 -43 19 -98v-173z" />
    <glyph glyph-name="q" unicode="q" horiz-adv-x="377" 
d="M255 323q0 61 -20.5 85.5t-55.5 24.5q-33 0 -52.5 -23.5t-19.5 -86.5v-157q0 -63 19.5 -86.5t52.5 -23.5q35 0 55.5 24.5t20.5 85.5v157zM254 -221v264q-14 -24 -35.5 -36.5t-58.5 -12.5q-75 0 -103 63q-9 20 -14 47.5t-5 54.5v173q0 55 19 98q28 65 101 65
q39 0 60.5 -14.5t35.5 -37.5v48h69v-712h-69z" />
    <glyph glyph-name="r" unicode="r" horiz-adv-x="264" 
d="M243 424q-2 0 -10.5 1t-22.5 1q-87 0 -87 -90v-336h-69v491h69v-52q28 54 102 54q3 0 6 -0.5t6 -0.5h6v-68z" />
    <glyph glyph-name="s" unicode="s" horiz-adv-x="329" 
d="M292 140q0 -76 -33 -111t-96 -35q-64 0 -95 34.5t-35 99.5h67q3 -39 17 -56t46 -17q36 0 49.5 20.5t13.5 62.5q0 36 -9 51t-39 25l-44 14q-26 8 -43.5 18.5t-29 26.5t-16.5 37.5t-5 52.5q0 71 35.5 102.5t89.5 31.5q52 0 87 -28t37 -95h-66q-2 38 -16.5 50.5t-42.5 12.5
q-32 0 -45 -16.5t-13 -54.5q0 -37 9.5 -51.5t37.5 -23.5l43 -14q24 -8 42 -17t30 -24t18 -38t6 -58z" />
    <glyph glyph-name="t" unicode="t" horiz-adv-x="221" 
d="M164 0q-48 0 -74 28t-26 80v329h-47v54h47v152h69v-152h69v-54h-69v-321q0 -29 10 -41t33 -12h26v-63h-38z" />
    <glyph glyph-name="u" unicode="u" horiz-adv-x="378" 
d="M255 0v47q-11 -21 -33 -36t-60 -15q-58 0 -84.5 35t-26.5 92v368h69v-352q0 -43 15 -60.5t47 -17.5q35 0 54 18.5t19 60.5v351h69v-491h-69z" />
    <glyph glyph-name="v" unicode="v" horiz-adv-x="314" 
d="M187 0h-60l-122 491h71l69 -305l12 -76l12 76l70 305h70z" />
    <glyph glyph-name="w" unicode="w" horiz-adv-x="496" 
d="M391 0h-61l-69 313l-12 65l-11 -65l-69 -313h-61l-103 491h71l58 -312l9 -68l11 68l68 312h55l68 -312l11 -68l9 68l58 312h71z" />
    <glyph glyph-name="x" unicode="x" horiz-adv-x="322" 
d="M236 0l-62 152l-13 42l-12 -42l-64 -152h-70l110 251l-105 240h70l59 -141l12 -40l13 40l57 141h71l-106 -240l111 -251h-71z" />
    <glyph glyph-name="y" unicode="y" horiz-adv-x="306" 
d="M160 -111q-6 -23 -12.5 -39.5t-17.5 -28.5q-14 -18 -38 -25t-48 -7h-17v64h14q27 0 37.5 13t19.5 49l25 101l-118 475h71l69 -308l12 -68l12 68l70 308h70z" />
    <glyph glyph-name="z" unicode="z" horiz-adv-x="307" 
d="M31 0v61l170 366h-159v64h235v-61l-171 -366h171v-64h-246z" />
    <glyph glyph-name="braceleft" unicode="{" horiz-adv-x="274" 
d="M210 -74q-65 0 -91 37q-12 17 -15.5 37t-3.5 55v193q0 21 -2.5 33.5t-10.5 23.5q-7 8 -17.5 13.5t-24.5 5.5h-17v64h17q14 0 24.5 5.5t17.5 13.5q8 11 10.5 23.5t2.5 32.5v194q0 35 3.5 55t15.5 37q26 37 91 37h33v-62h-24q-32 0 -43 -16q-5 -10 -6 -23t-1 -33v-199
q0 -44 -14.5 -64.5t-43.5 -32.5q29 -12 43.5 -33t14.5 -65v-198q0 -20 1 -33t6 -23q11 -16 43 -16h24v-62h-33z" />
    <glyph glyph-name="bar" unicode="|" horiz-adv-x="241" 
d="M89 -74v860h66v-860h-66z" />
    <glyph glyph-name="braceright" unicode="}" horiz-adv-x="274" 
d="M229 324q-14 0 -24.5 -5.5t-17.5 -13.5q-8 -11 -10.5 -23.5t-2.5 -33.5v-193q0 -35 -3.5 -55t-15.5 -37q-26 -37 -91 -37h-33v62h24q34 0 43 16q5 10 6 23t1 33v198q0 44 15 65t44 33q-29 12 -44 32.5t-15 64.5v199q0 20 -1 33t-6 23q-9 16 -43 16h-24v62h33q65 0 91 -37
q12 -17 15.5 -37t3.5 -55v-194q0 -20 2.5 -32.5t10.5 -23.5q7 -8 17.5 -13.5t24.5 -5.5h17v-64h-17z" />
    <glyph glyph-name="asciitilde" unicode="~" 
d="M351 287q-19 -31 -42 -52.5t-64 -21.5q-21 0 -38 8.5t-33 19.5q-15 10 -27.5 18t-26.5 8q-20 0 -33 -10.5t-27 -33.5l-48 33q19 30 42 51.5t64 21.5q22 0 39 -8.5t34 -19.5q14 -9 26.5 -17t26.5 -8q20 0 32.5 10.5t26.5 33.5z" />
    <glyph glyph-name="nonbreakingspace" unicode="&#xa0;" horiz-adv-x="173" 
 />
    <glyph glyph-name="sterling" unicode="&#xa3;" 
d="M280 537q0 22 -2 43t-9.5 38t-23.5 27.5t-43 10.5q-42 0 -58.5 -25.5t-16.5 -88.5v-160h125v-50h-125v-268h216v-64h-285v332h-52v50h52v167q0 92 39 131t105 39t106.5 -40.5t40.5 -132.5v-9h-69z" />
    <glyph glyph-name="currency" unicode="&#xa4;" 
d="M345 167q0 -45 -11 -77.5t-30.5 -53.5t-46 -31.5t-57.5 -10.5q-63 0 -104 42t-41 131v122h-46v50h46v48h-46v50h46v108q0 89 41 131t104 42q31 0 57.5 -10.5t46 -31.5t30.5 -53.5t11 -77.5v-13h-69v9q0 59 -17.5 86.5t-58.5 27.5q-42 0 -59 -27.5t-17 -86.5v-104h177
l-15 -50h-162v-48h147l-15 -50h-132v-118q0 -59 17 -86.5t59 -27.5q41 0 58.5 27.5t17.5 86.5v7h69v-11z" />
    <glyph glyph-name="brokenbar" unicode="&#xa6;" horiz-adv-x="215" 
d="M71 -74v350h72v-350h-72zM71 436v350h72v-350h-72z" />
    <glyph glyph-name="section" unicode="&#xa7;" horiz-adv-x="556" 
d="M397 252q0 60 -32 94.5t-86 34.5q-53 0 -86 -35t-33 -92q0 -58 32.5 -93.5t86.5 -35.5q53 0 85.5 35t32.5 92zM470 256q0 -59 -28 -99t-76 -67q47 -21 72 -55.5t25 -88.5q0 -38 -13.5 -69.5t-38.5 -54.5t-59 -35.5t-75 -12.5q-78 0 -129 41.5t-58 119.5h73
q13 -95 115 -95q52 0 82 27t30 75q0 38 -23 65.5t-65 39.5l-78 22q-65 18 -101 65.5t-36 114.5q0 60 27.5 99.5t77.5 67.5q-45 21 -69 52.5t-24 83.5q0 37 13 67.5t37 52.5t57 34t74 12q79 0 126 -40.5t55 -116.5h-72q-6 50 -31.5 71.5t-79.5 21.5q-51 0 -79 -25.5
t-28 -72.5q0 -73 84 -97l78 -22q64 -18 100.5 -66.5t36.5 -114.5z" />
    <glyph glyph-name="copyright" unicode="&#xa9;" horiz-adv-x="800" 
d="M536 205q-21 -18 -34 -26.5t-30 -14.5q-28 -11 -66 -11q-84 0 -131.5 54t-47.5 149t48 149.5t131 54.5q18 0 34 -2.5t30 -7.5q17 -6 30 -14.5t36 -28.5l-37 -37q-27 23 -46 31t-47 8q-123 0 -123 -158q0 -72 32 -110t92 -38q28 0 46.5 8t45.5 31zM703 350q0 66 -23.5 123
t-64.5 99.5t-96 67t-119 24.5q-63 0 -118 -24.5t-96 -66.5t-65 -98t-24 -119t24 -119t65 -98t96 -66.5t118 -24.5q61 0 116.5 24.5t96.5 65.5t65.5 96t24.5 116zM762 363q0 -78 -28 -145t-77 -117t-115 -78.5t-142 -28.5q-75 0 -141 28.5t-115 77.5t-77.5 115t-28.5 141
t28.5 141t77.5 115t115 77.5t141 28.5q73 0 139 -28.5t115.5 -77t78.5 -113t29 -136.5z" />
    <glyph glyph-name="guillemotleft" unicode="&#xab;" horiz-adv-x="441" 
d="M27 268l191 191v-89l-102 -102l102 -103v-89zM210 268l192 191v-89l-104 -102l104 -103v-89z" />
    <glyph glyph-name="logicalnot" unicode="&#xac;" 
d="M264 103v137h-235v67h303v-204h-68z" />
    <glyph glyph-name="registered" unicode="&#xae;" horiz-adv-x="438" 
d="M264 572q0 16 -11 26t-28 10h-38v-72h38q17 0 28 10t11 26zM265 428l-47 84h-31v-84h-29v206h71q26 0 45 -18t19 -45q0 -21 -12 -35t-32 -20l49 -88h-33zM378 528q0 34 -12.5 64t-34 52t-50.5 34.5t-62 12.5t-61.5 -12.5t-50 -34.5t-34 -51t-12.5 -62t12.5 -62.5
t34 -51.5t50 -34.5t61.5 -12.5q32 0 61 12.5t50.5 34t34.5 50.5t13 61zM407 534q0 -40 -14.5 -75t-40 -60.5t-59.5 -40.5t-74 -15q-39 0 -73.5 14.5t-60 40t-40 60t-14.5 73.5t14.5 73t40 59.5t60 40.5t73.5 15q38 0 72.5 -15t60 -40t40.5 -59t15 -71z" />
    <glyph glyph-name="degree" unicode="&#xb0;" horiz-adv-x="337" 
d="M231 594q0 31 -18 49t-45 18q-26 0 -44 -18t-18 -47t18 -47t45 -18q26 0 44 18t18 45zM293 599q0 -27 -9.5 -50t-26.5 -40.5t-39.5 -27t-48.5 -9.5t-48.5 9.5t-39.5 26.5t-26.5 39.5t-9.5 48.5t9.5 48.5t26.5 39.5t39.5 26.5t48.5 9.5q25 0 47.5 -10t39.5 -26.5t27 -38.5
t10 -46z" />
    <glyph glyph-name="plusminus" unicode="&#xb1;" 
d="M33 0v64h296v-64h-296zM214 267v-128h-66v128h-116v63h116v127h66v-127h115v-63h-115z" />
    <glyph glyph-name="mu" unicode="&#xb5;" horiz-adv-x="378" 
d="M255 0v47q-11 -20 -30.5 -34.5t-53.5 -14.5q-16 0 -29 5t-23 12v-236h-68v712h69v-352q0 -43 15 -60.5t48 -17.5q34 0 53 18.5t19 60.5v351h70v-491h-70z" />
    <glyph glyph-name="mu" unicode="&#x3bc;" horiz-adv-x="378" 
d="M255 0v47q-11 -20 -30.5 -34.5t-53.5 -14.5q-16 0 -29 5t-23 12v-236h-68v712h69v-352q0 -43 15 -60.5t48 -17.5q34 0 53 18.5t19 60.5v351h70v-491h-70z" />
    <glyph glyph-name="paragraph" unicode="&#xb6;" horiz-adv-x="405" 
d="M294 -219v869h-49v-869h-58v632q-35 0 -63 12.5t-48 33.5t-30.5 48t-10.5 56q0 31 11 58t32.5 47.5t52.5 32t71 11.5h150v-931h-58z" />
    <glyph glyph-name="periodcentered" unicode="&#xb7;" horiz-adv-x="216" 
d="M159 271q0 -22 -15 -37.5t-37 -15.5q-21 0 -36.5 15.5t-15.5 36.5q0 22 15.5 37t36.5 15q22 0 37 -15.5t15 -35.5z" />
    <glyph glyph-name="periodcentered" unicode="&#x2219;" horiz-adv-x="216" 
d="M159 271q0 -22 -15 -37.5t-37 -15.5q-21 0 -36.5 15.5t-15.5 36.5q0 22 15.5 37t36.5 15q22 0 37 -15.5t15 -35.5z" />
    <glyph glyph-name="guillemotright" unicode="&#xbb;" horiz-adv-x="441" 
d="M40 76v89l103 103l-103 102v89l191 -191zM223 76v89l103 103l-103 102v89l191 -191z" />
    <glyph glyph-name="divide" unicode="&#xf7;" 
d="M238 91q0 -25 -17 -42t-41 -17q-23 0 -40 17t-17 41q0 23 17 40t40 17q24 0 41 -16.5t17 -39.5zM28 236v67h306v-67h-306zM238 451q0 -25 -17 -42t-41 -17q-23 0 -40 17t-17 40q0 24 17 41t40 17q24 0 41 -16.5t17 -39.5z" />
    <glyph glyph-name="florin" unicode="&#x192;" horiz-adv-x="314" 
d="M270 651q-35 0 -49 -17t-19 -54l-24 -195h86v-50h-92l-69 -556h-69l69 556h-78v50h84l24 197q7 60 37.5 96t95.5 36h32v-63h-28z" />
    <glyph glyph-name="Delta" unicode="&#x394;" horiz-adv-x="603" 
d="M302 602l-193 -535h385zM8 0l262 712h63l262 -712h-587z" />
    <glyph glyph-name="Delta" unicode="&#x2206;" horiz-adv-x="603" 
d="M302 602l-193 -535h385zM8 0l262 712h63l262 -712h-587z" />
    <glyph glyph-name="afii10023" unicode="&#x401;" horiz-adv-x="388" 
d="M60 0v712h299v-67h-225v-252h187v-67h-187v-259h227v-67h-301zM194 807q0 -20 -13.5 -33t-31.5 -13q-19 0 -32 13t-13 32t13 32t31 13t32 -13t14 -31zM331 807q0 -20 -13 -33t-31 -13q-19 0 -32 13t-13 32t13 32t31 13t31.5 -13t13.5 -31z" />
    <glyph glyph-name="afii10051" unicode="&#x402;" horiz-adv-x="505" 
d="M454 -2q0 -54 -29 -89.5t-86 -35.5h-23v66h14q27 0 38.5 15.5t11.5 46.5v244q0 72 -24.5 103.5t-86.5 31.5q-26 0 -47.5 -5t-31.5 -8v-367h-73v645h-103v67h337v-67h-161v-215q6 2 17 5t24.5 5.5t27 4t24.5 1.5q82 0 126.5 -47.5t44.5 -145.5v-255z" />
    <glyph glyph-name="afii10052" unicode="&#x403;" horiz-adv-x="382" 
d="M134 645v-645h-74v712h298v-67h-224zM199 740h-54l76 136h75z" />
    <glyph glyph-name="afii10053" unicode="&#x404;" horiz-adv-x="423" 
d="M389 195q-4 -201 -168 -201q-33 0 -63.5 9t-54.5 32.5t-38.5 63t-14.5 101.5v312q0 61 14.5 101t38.5 63.5t55 32.5t63 9q35 0 65 -9.5t52.5 -32t35.5 -60t15 -92.5h-75q-1 30 -5 53.5t-14.5 40t-28.5 25.5t-45 9q-20 0 -37.5 -5.5t-31 -21t-21.5 -44.5t-8 -77v-111h162
v-66h-162v-118q0 -48 8 -77.5t21.5 -45t31 -21t37.5 -5.5q47 0 69.5 30.5t24.5 104.5h74z" />
    <glyph glyph-name="afii10054" unicode="&#x405;" horiz-adv-x="400" 
d="M366 191q0 -108 -45 -152.5t-127 -44.5q-77 0 -119 43t-45 126h72q4 -57 27 -79t66 -22q52 0 75 29t23 97q0 38 -4.5 61t-18.5 41q-10 12 -22.5 19.5t-37.5 16.5l-37 13q-40 14 -60.5 26.5t-37.5 35.5q-20 25 -27 58t-7 78q0 93 41.5 137t119.5 44q70 0 111 -35.5
t46 -125.5h-73q-2 51 -21 73t-64 22q-46 0 -67 -26.5t-21 -86.5q0 -31 4 -52.5t15 -35.5q10 -14 23 -21.5t39 -16.5l35 -12q38 -13 59 -25t38 -31q22 -26 31 -62.5t9 -91.5z" />
    <glyph glyph-name="afii10056" unicode="&#x407;" horiz-adv-x="214" 
d="M70 0v712h74v-712h-74zM84 807q0 -20 -13.5 -33t-31.5 -13q-19 0 -32 13t-13 32t13 32t31 13t32 -13t14 -31zM221 807q0 -20 -13 -33t-31 -13q-19 0 -32 13t-13 32t13 32t31 13t31.5 -13t13.5 -31z" />
    <glyph glyph-name="afii10057" unicode="&#x408;" horiz-adv-x="377" 
d="M313 199q0 -56 -10.5 -95t-30.5 -63.5t-48 -35.5t-63 -11q-27 0 -49.5 7t-40 18.5t-31 26.5t-23.5 31l59 40q12 -18 31.5 -37t52.5 -19q21 0 36 7.5t24.5 24.5t14 46t4.5 71v502h74v-513z" />
    <glyph glyph-name="afii10058" unicode="&#x409;" horiz-adv-x="712" 
d="M608 207q0 72 -24.5 103.5t-86.5 31.5h-79v-275h79q64 0 87.5 32t23.5 103v5zM682 195q0 -195 -177 -195h-160v645h-148l-9 -394q-1 -48 -9.5 -93t-28.5 -80t-53 -56.5t-83 -21.5h-22v68h4q33 0 55 14.5t35.5 41t20 64t7.5 84.5l10 440h294v-304h87q177 0 177 -195v-18z
" />
    <glyph glyph-name="afii10059" unicode="&#x40a;" horiz-adv-x="706" 
d="M603 207q0 72 -25 103.5t-87 31.5h-78v-275h78q64 0 88 31.5t24 103.5v5zM676 195q0 -195 -177 -195h-160v341h-197v-341h-74v712h74v-304h197v304h74v-304h86q177 0 177 -195v-18z" />
    <glyph glyph-name="afii10060" unicode="&#x40b;" horiz-adv-x="505" 
d="M380 0v245q0 72 -24.5 103.5t-86.5 31.5q-26 0 -47.5 -5t-31.5 -8v-367h-73v645h-103v67h337v-67h-161v-215q6 2 17 5t24.5 5.5t27 4t24.5 1.5q82 0 126.5 -47.5t44.5 -145.5v-253h-74z" />
    <glyph glyph-name="afii10061" unicode="&#x40c;" horiz-adv-x="440" 
d="M353 0l-146 348l-65 -116v-232h-74v712h74v-358l195 358h75l-157 -285l177 -427h-79zM220 740h-54l77 136h74z" />
    <glyph glyph-name="afii10062" unicode="&#x40e;" horiz-adv-x="398" 
d="M211 101q-7 -23 -15 -40t-19 -29q-17 -18 -41.5 -25t-48.5 -7h-39v67h37q27 0 39 12t23 47l23 77l-166 509h74l105 -324q0 -2 2.5 -10.5t5.5 -21t6.5 -26t6.5 -23.5l114 405h76zM326 870q-6 -57 -41.5 -88t-89.5 -31q-55 0 -89 30t-41 89h55q4 -26 21.5 -46.5t54.5 -20.5
q38 0 55 20.5t20 46.5h55z" />
    <glyph glyph-name="afii10145" unicode="&#x40f;" horiz-adv-x="481" 
d="M274 0v-161h-68v161h-138v712h74v-645h197v645h74v-712h-139z" />
    <glyph glyph-name="afii10017" unicode="&#x410;" horiz-adv-x="418" 
d="M286 213q-5 22 -10 46q-5 20 -11 46t-12 54q-15 64 -33 147l-13 71l-13 -71l-64 -293h156zM335 0l-34 150h-185l-33 -150h-72l165 712h64l168 -712h-73z" />
    <glyph glyph-name="afii10018" unicode="&#x411;" horiz-adv-x="448" 
d="M337 217q0 72 -24.5 103.5t-86.5 31.5h-84v-285h84q64 0 87.5 32t23.5 103v15zM411 195q0 -195 -177 -195h-166v712h310v-67h-236v-226h92q177 0 177 -195v-29z" />
    <glyph glyph-name="afii10019" unicode="&#x412;" horiz-adv-x="448" 
d="M338 199q0 30 -5 54.5t-18.5 42t-36.5 27t-60 9.5h-76v-266h76q36 0 59 9.5t36.5 26.5t19 42t5.5 55zM329 521q0 66 -24.5 95.5t-91.5 29.5h-71v-249h74q35 0 57 8.5t34.5 24.5t17 39t4.5 52zM411 188q0 -93 -47 -140.5t-140 -47.5h-156v712h151q96 0 140 -45t44 -136
v-19q0 -54 -21.5 -93.5t-61.5 -52.5q38 -11 64.5 -52.5t26.5 -105.5v-20z" />
    <glyph glyph-name="afii10020" unicode="&#x413;" horiz-adv-x="382" 
d="M134 645v-645h-74v712h298v-67h-224z" />
    <glyph glyph-name="afii10021" unicode="&#x414;" horiz-adv-x="499" 
d="M349 645h-146v-97q0 -66 -1.5 -117.5t-5 -93t-9.5 -75.5t-14 -65.5t-18.5 -62.5t-24.5 -67h219v578zM418 -161v161h-342v-161h-69v228h46q24 57 39.5 110.5t24 116.5t12 141t3.5 185v92h290v-645h64v-228h-68z" />
    <glyph glyph-name="afii10022" unicode="&#x415;" horiz-adv-x="388" 
d="M60 0v712h299v-66h-225v-253h187v-66h-187v-261h227v-66h-301z" />
    <glyph glyph-name="afii10024" unicode="&#x416;" horiz-adv-x="646" 
d="M563 0l-142 344l-61 -112v-232h-73v232l-61 112l-143 -344h-76l173 421l-153 291h75l185 -351v351h73v-355l185 355h75l-154 -291l173 -421h-76z" />
    <glyph glyph-name="afii10025" unicode="&#x417;" horiz-adv-x="403" 
d="M366 188q0 -54 -12 -91t-34.5 -60t-54 -33t-71.5 -10q-78 0 -121 45.5t-43 123.5v21h72v-16q0 -57 25 -82t68 -25q52 0 75 29.5t23 99.5v26q0 61 -22 89t-73 28h-44v63h44q45 0 67 26.5t22 84.5v31q0 62 -21.5 88.5t-67.5 26.5q-45 0 -65 -24.5t-20 -74.5v-18h-72v21
q0 85 43.5 123t112.5 38q76 0 119 -42.5t43 -136.5v-37q0 -48 -19 -84t-62 -51q88 -23 88 -145v-34z" />
    <glyph glyph-name="afii10026" unicode="&#x418;" horiz-adv-x="489" 
d="M348 0v489q0 2 0.5 13t1.5 23.5t1.5 22.5t0.5 12l-16 -43l-199 -517h-69v712h72v-487q0 -2 -0.5 -13.5t-1 -24.5t-1 -24t-0.5 -13l16 48l199 514h68v-712h-72z" />
    <glyph glyph-name="afii10027" unicode="&#x419;" horiz-adv-x="489" 
d="M348 0v489q0 2 0.5 13t1.5 23.5t1.5 22.5t0.5 12l-16 -43l-199 -517h-69v712h72v-487q0 -2 -0.5 -13.5t-1 -24.5t-1 -24t-0.5 -13l16 48l199 514h68v-712h-72zM384 870q-6 -57 -41.5 -88t-89.5 -31t-88 30t-41 89h55q3 -26 20.5 -46.5t55.5 -20.5t55 20.5t20 46.5h54z
" />
    <glyph glyph-name="afii10028" unicode="&#x41a;" horiz-adv-x="440" 
d="M353 0l-146 348l-65 -116v-232h-74v712h74v-358l195 358h75l-157 -285l177 -427h-79z" />
    <glyph glyph-name="afii10029" unicode="&#x41b;" horiz-adv-x="487" 
d="M345 0v645h-147l-10 -394q-1 -48 -9.5 -93t-28.5 -80t-53 -56.5t-83 -21.5h-22v68h4q33 0 55 14.5t35.5 41t20 64t7.5 84.5l11 440h293v-712h-73z" />
    <glyph glyph-name="afii10030" unicode="&#x41c;" horiz-adv-x="571" 
d="M433 0v444l2 83l-15 -61l-106 -351h-54l-109 351l-15 61l2 -83v-444h-70v712h72l147 -491l144 491h72v-712h-70z" />
    <glyph glyph-name="afii10031" unicode="&#x41d;" horiz-adv-x="481" 
d="M339 0v326h-197v-326h-74v712h74v-319h197v319h74v-712h-74z" />
    <glyph glyph-name="afii10032" unicode="&#x41e;" horiz-adv-x="443" 
d="M320 504q0 48 -8 76.5t-21.5 44.5t-31 21t-37.5 5t-37.5 -5t-31 -21t-21.5 -44.5t-8 -76.5v-295q0 -48 8 -77t21.5 -45t31 -21t37.5 -5t37.5 5t31 21t21.5 45t8 77v295zM393 200q0 -62 -14.5 -101.5t-38.5 -63t-54.5 -32.5t-63.5 -9t-64 9t-55 32.5t-38.5 63t-14.5 101.5
v312q0 61 14.5 101t38.5 63.5t55 32.5t64 9t63.5 -9t54.5 -32.5t38.5 -63.5t14.5 -101v-312z" />
    <glyph glyph-name="afii10033" unicode="&#x41f;" horiz-adv-x="481" 
d="M339 0v645h-197v-645h-74v712h345v-712h-74z" />
    <glyph glyph-name="afii10034" unicode="&#x420;" horiz-adv-x="436" 
d="M332 511q0 71 -24 103t-88 32h-78v-287h78q62 0 87 31.5t25 103.5v17zM406 488q0 -195 -178 -195h-86v-293h-74v712h160q178 0 178 -195v-29z" />
    <glyph glyph-name="afii10035" unicode="&#x421;" horiz-adv-x="423" 
d="M388 196q-3 -202 -167 -202q-33 0 -63.5 9t-54.5 32.5t-38.5 63t-14.5 101.5v312q0 61 14.5 101t38.5 63.5t55 32.5t63 9q35 0 65 -9.5t52.5 -32t35.5 -60t14 -93.5h-75q-1 31 -5 54.5t-14.5 40t-28 25t-44.5 8.5q-20 0 -37.5 -5t-30.5 -21t-21 -44.5t-8 -76.5v-295
q0 -48 8 -77t21 -45t30.5 -21t37.5 -5q48 0 69.5 30t23.5 105h74z" />
    <glyph glyph-name="afii10036" unicode="&#x422;" horiz-adv-x="366" 
d="M219 645v-645h-73v645h-132v67h337v-67h-132z" />
    <glyph glyph-name="afii10037" unicode="&#x423;" horiz-adv-x="398" 
d="M211 101q-7 -23 -15 -40t-19 -29q-17 -18 -41.5 -25t-48.5 -7h-39v67h37q27 0 39 12t23 47l23 77l-166 509h74l105 -324q0 -2 2.5 -10.5t5.5 -21t6.5 -26t6.5 -23.5l114 405h76z" />
    <glyph glyph-name="afii10038" unicode="&#x424;" horiz-adv-x="571" 
d="M250 581h-32q-20 0 -38 -5t-32 -21t-22.5 -44.5t-8.5 -76.5v-152q0 -48 8.5 -76.5t22.5 -44.5t32.5 -21t38.5 -5h31v446zM454 434q0 48 -8 76.5t-22 44.5t-32.5 21t-38.5 5h-31v-446h31q20 0 38 5t32 21t22.5 44.5t8.5 76.5v152zM528 273q0 -63 -15 -103t-39 -63
t-55.5 -31.5t-64.5 -8.5h-31v-67h-74v67h-32q-33 0 -64 8.5t-55 31.5t-39 63t-15 103v171q0 62 15 102t39 63t55 31.5t64 8.5h32v63h74v-63h31q33 0 64.5 -8.5t55.5 -31.5t39 -63t15 -102v-171z" />
    <glyph glyph-name="afii10039" unicode="&#x425;" horiz-adv-x="386" 
d="M305 0l-97 243l-17 52l-17 -52l-95 -243h-76l151 369l-140 343h78l83 -211l19 -58l19 58l83 211h75l-140 -343l152 -369h-78z" />
    <glyph glyph-name="afii10040" unicode="&#x426;" horiz-adv-x="492" 
d="M408 -161v161h-340v712h74v-645h197v645h74v-645h64v-228h-69z" />
    <glyph glyph-name="afii10041" unicode="&#x427;" horiz-adv-x="452" 
d="M310 0v299q-6 -3 -17 -5.5t-24.5 -5t-27 -4t-23.5 -1.5q-83 0 -127.5 47.5t-44.5 144.5v237h74v-229q0 -72 24.5 -103.5t86.5 -31.5q26 0 47.5 5t31.5 8v351h73v-712h-73z" />
    <glyph glyph-name="afii10042" unicode="&#x428;" horiz-adv-x="694" 
d="M68 0v712h74v-645h168v645h74v-645h168v645h74v-712h-558z" />
    <glyph glyph-name="afii10043" unicode="&#x429;" horiz-adv-x="705" 
d="M621 -161v161h-553v712h74v-645h168v645h74v-645h168v645h74v-645h64v-228h-69z" />
    <glyph glyph-name="afii10044" unicode="&#x42a;" horiz-adv-x="508" 
d="M405 219q0 72 -25 103.5t-87 31.5h-78v-287h78q64 0 88 32t24 103v17zM478 195q0 -195 -177 -195h-160v645h-127v67h201v-292h86q177 0 177 -195v-30z" />
    <glyph glyph-name="afii10045" unicode="&#x42b;" horiz-adv-x="622" 
d="M332 219q0 72 -25 103.5t-87 31.5h-78v-287h78q64 0 88 32t24 103v17zM406 195q0 -195 -178 -195h-160v712h74v-292h86q178 0 178 -195v-30zM480 0v712h74v-712h-74z" />
    <glyph glyph-name="afii10046" unicode="&#x42c;" horiz-adv-x="435" 
d="M332 219q0 72 -25 103.5t-87 31.5h-78v-287h78q64 0 88 32t24 103v17zM406 195q0 -195 -178 -195h-160v712h74v-292h86q178 0 178 -195v-30z" />
    <glyph glyph-name="afii10047" unicode="&#x42d;" horiz-adv-x="423" 
d="M373 200q0 -62 -14.5 -101.5t-38.5 -63t-54.5 -32.5t-63.5 -9q-163 0 -167 201h73q2 -75 24 -105t70 -30q19 0 37 5.5t31.5 21t21.5 45t8 77.5v118h-161v66h161v111q0 48 -8 77t-21.5 44.5t-31 21t-37.5 5.5q-27 0 -45 -9t-28.5 -25.5t-14.5 -40t-5 -53.5h-74
q1 55 14 92.5t35.5 60t52.5 32t65 9.5q32 0 63 -9t55 -32.5t38.5 -63.5t14.5 -101v-312z" />
    <glyph glyph-name="afii10048" unicode="&#x42e;" horiz-adv-x="617" 
d="M494 504q0 48 -8 76.5t-21.5 44.5t-31 21t-37.5 5t-37.5 -5t-31 -21t-21.5 -44.5t-8 -76.5v-295q0 -48 8 -77t21.5 -45t31 -21t37.5 -5t37.5 5t31 21t21.5 45t8 77v295zM567 200q0 -62 -14.5 -101.5t-38.5 -63t-54.5 -32.5t-63.5 -9t-64 9t-55 32.5t-38.5 63t-14.5 101.5
v126h-82v-326h-74v712h74v-319h82v119q0 61 14.5 101t38.5 63.5t55 32.5t64 9t63.5 -9t54.5 -32.5t38.5 -63.5t14.5 -101v-312z" />
    <glyph glyph-name="afii10049" unicode="&#x42f;" horiz-adv-x="449" 
d="M307 646h-87q-54 0 -78 -30t-24 -96v-31q0 -67 26.5 -96.5t75.5 -29.5h87v283zM307 0v299h-80l-123 -299h-78l128 309q-51 17 -80.5 59t-29.5 120v39q0 85 40 135t127 50h170v-712h-74z" />
    <glyph glyph-name="afii10065" unicode="&#x430;" horiz-adv-x="363" 
d="M243 227h-68q-36 0 -55.5 -19.5t-19.5 -66.5q0 -86 65 -86q19 0 33.5 6t28.5 26q16 24 16 84v56zM243 0v48q-14 -25 -37.5 -38t-52.5 -13t-53 9.5t-39 29.5t-21.5 45.5t-6.5 57.5q0 71 37.5 106.5t97.5 35.5h75v79q0 44 -16 58.5t-45 14.5t-47.5 -16.5t-21.5 -54.5h-67
q1 35 13 60t31 41.5t43.5 24.5t50.5 8q60 0 94 -31.5t34 -95.5v-369h-69z" />
    <glyph glyph-name="afii10066" unicode="&#x431;" horiz-adv-x="359" 
d="M254 319q0 63 -19 86t-54 23t-53.5 -23t-18.5 -86v-153q0 -64 18.5 -87t53.5 -23t54 23t19 87v153zM323 162q0 -89 -39 -128.5t-103 -39.5q-63 0 -102 39.5t-39 128.5v201q0 51 1 94.5t5.5 80t14.5 65.5t28 52q16 21 38 31.5t46.5 15.5t50 5.5t49.5 2.5l32 2v-61l-16 -1
q-19 -1 -41.5 -1.5t-45 -3.5t-42.5 -11.5t-34 -25.5q-10 -12 -16.5 -33t-10 -44.5t-4.5 -47.5t-1 -43h2q8 18 31.5 33.5t61.5 15.5q58 0 96 -40.5t38 -127.5v-159z" />
    <glyph glyph-name="afii10067" unicode="&#x432;" horiz-adv-x="359" 
d="M254 140q0 39 -15 60.5t-61 21.5h-56v-164h56q45 0 60.5 21.5t15.5 60.5zM248 356q0 42 -15.5 59.5t-58.5 17.5h-52v-153h54q44 0 58 19t14 57zM323 131q0 -62 -31 -96.5t-98 -34.5h-141v491h137q66 0 96.5 -31t30.5 -94v-14q0 -35 -13 -62t-44 -38q30 -9 46.5 -38
t16.5 -68v-15z" />
    <glyph glyph-name="afii10068" unicode="&#x433;" horiz-adv-x="294" 
d="M123 430v-430h-70v491h233v-61h-163z" />
    <glyph glyph-name="afii10069" unicode="&#x434;" horiz-adv-x="389" 
d="M260 430h-97v-59q0 -63 -2 -107t-7.5 -77.5t-14.5 -62.5t-22 -63h143v369zM319 -134v134h-252v-134h-64v195h42q16 38 25.5 73.5t15 77t7.5 93.5t2 123v63h234v-430h54v-195h-64z" />
    <glyph glyph-name="afii10070" unicode="&#x435;" horiz-adv-x="355" 
d="M249 325q0 63 -17 86.5t-53 23.5q-35 0 -54 -23.5t-19 -90.5v-42h143v46zM106 224v-52q0 -68 20 -92.5t55 -24.5q34 0 49.5 17t17.5 59h67q-3 -64 -35.5 -100.5t-98.5 -36.5q-64 0 -103.5 40.5t-39.5 133.5v154q0 92 39 132.5t102 40.5q66 0 102 -40t36 -129v-102h-211z
" />
    <glyph glyph-name="afii10072" unicode="&#x436;" horiz-adv-x="525" 
d="M437 0l-104 223l-37 -64v-159h-67v159l-37 64l-104 -223h-74l132 289l-115 202h73l125 -221v221h67v-221l125 221h73l-115 -202l133 -289h-75z" />
    <glyph glyph-name="afii10073" unicode="&#x437;" horiz-adv-x="329" 
d="M290 137q0 -72 -31 -107.5t-99 -35.5q-42 0 -69 15t-42 42q-11 18 -14.5 38.5t-3.5 43.5h65q0 -32 14.5 -55t49.5 -23q37 0 50 21t13 63v14q0 38 -14.5 54t-48.5 16h-37v56h37q29 0 44 16t15 53v17q0 38 -13 54.5t-45 16.5q-35 0 -48 -21q-8 -11 -9.5 -24t-1.5 -26h-65
q0 26 5 49t23 43q17 18 44 28.5t51 10.5q63 0 94 -31t31 -101v-24q0 -27 -12.5 -51t-41.5 -35q31 -11 45 -36t14 -61v-20z" />
    <glyph glyph-name="afii10074" unicode="&#x438;" horiz-adv-x="388" 
d="M265 0v265q0 2 0.5 14t1 26l1 28t1.5 20l-150 -353h-66v491h70v-271q0 -3 -0.5 -13.5t-1 -24t-1 -26.5t-0.5 -20l149 355h66v-491h-70z" />
    <glyph glyph-name="afii10075" unicode="&#x439;" horiz-adv-x="388" 
d="M265 0v265q0 2 0.5 14t1 26l1 28t1.5 20l-150 -353h-66v491h70v-271q0 -3 -0.5 -13.5t-1 -24t-1 -26.5t-0.5 -20l149 355h66v-491h-70zM317 676q-7 -57 -40.5 -86t-82.5 -29t-82 27.5t-40 87.5h55q4 -27 20 -45t48 -18q31 0 47.5 18.5t19.5 44.5h55z" />
    <glyph glyph-name="afii10076" unicode="&#x43a;" horiz-adv-x="359" 
d="M272 0l-110 221l-40 -66v-155h-69v491h69v-223l135 223h72l-122 -204l140 -287h-75z" />
    <glyph glyph-name="afii10077" unicode="&#x43b;" horiz-adv-x="383" 
d="M260 0v433h-109l-6 -258q-1 -32 -6 -63.5t-18.5 -56t-37 -40t-60.5 -15.5h-23v60h9q40 0 54 33t16 96l7 302h243v-491h-69z" />
    <glyph glyph-name="afii10078" unicode="&#x43c;" horiz-adv-x="473" 
d="M350 0v256q0 1 0.5 12.5t1 25t1 25t0.5 13.5h-3l-89 -254h-48l-90 254h-3q0 -1 0.5 -12.5t1 -25t1 -25.5t0.5 -13v-256h-70v491h75l110 -325l106 325h76v-491h-70z" />
    <glyph glyph-name="afii10079" unicode="&#x43d;" horiz-adv-x="381" 
d="M258 0v217h-135v-217h-70v491h70v-212h135v212h69v-491h-69z" />
    <glyph glyph-name="afii10080" unicode="&#x43e;" horiz-adv-x="359" 
d="M252 324q0 63 -19 86t-54 23t-53.5 -23t-18.5 -86v-158q0 -64 18.5 -87t53.5 -23t54 23t19 87v158zM321 162q0 -89 -39 -128.5t-103 -39.5q-63 0 -102 39.5t-39 128.5v166q0 87 39 127.5t102 40.5q64 0 103 -40.5t39 -127.5v-166z" />
    <glyph glyph-name="afii10081" unicode="&#x43f;" horiz-adv-x="381" 
d="M258 0v430h-135v-430h-70v491h274v-491h-69z" />
    <glyph glyph-name="afii10082" unicode="&#x440;" horiz-adv-x="377" 
d="M270 323q0 63 -19.5 86.5t-52.5 23.5q-35 0 -55.5 -24.5t-20.5 -85.5v-157q0 -60 20.5 -85t55.5 -25q33 0 52.5 23.5t19.5 86.5v157zM339 159q0 -27 -5 -54.5t-14 -47.5q-28 -63 -103 -63q-37 0 -58.5 12.5t-35.5 36.5v-264h-70v712h70v-48q14 23 36 37.5t60 14.5
q73 0 101 -64q19 -44 19 -99v-173z" />
    <glyph glyph-name="afii10083" unicode="&#x441;" horiz-adv-x="339" 
d="M312 140q-2 -66 -35.5 -106t-101.5 -40q-29 0 -54 9.5t-43.5 30t-29 52.5t-10.5 77v163q0 88 39 128.5t98 40.5q63 0 98.5 -34t37.5 -110h-68q-3 43 -17.5 62.5t-50.5 19.5q-31 0 -49.5 -23t-18.5 -87v-156q0 -32 5 -53.5t14 -34.5t21.5 -18t27.5 -5q35 0 50.5 20.5
t17.5 63.5h69z" />
    <glyph glyph-name="afii10084" unicode="&#x442;" horiz-adv-x="299" 
d="M184 430v-430h-69v430h-107v61h283v-61h-107z" />
    <glyph glyph-name="afii10085" unicode="&#x443;" horiz-adv-x="306" 
d="M160 -111q-6 -23 -12.5 -39.5t-17.5 -28.5q-14 -18 -38 -25t-48 -7h-17v64h14q27 0 37.5 13t19.5 49l25 101l-118 475h71l69 -308l12 -68l12 68l70 308h70z" />
    <glyph glyph-name="afii10086" unicode="&#x444;" horiz-adv-x="525" 
d="M228 437q-28 -3 -51 -12t-39 -26t-24.5 -45t-8.5 -68v-78q0 -64 31.5 -103t91.5 -48v380zM420 286q0 77 -32.5 110.5t-90.5 39.5v-379q60 9 91.5 48t31.5 103v78zM489 207q0 -196 -192 -212v-216h-69v215q-91 8 -141.5 60.5t-50.5 158.5v71q0 53 13.5 91.5t38.5 64
t60.5 39t79.5 17.5v216h69v-216q94 -8 143 -58t49 -150v-81z" />
    <glyph glyph-name="afii10087" unicode="&#x445;" horiz-adv-x="322" 
d="M236 0l-62 152l-13 42l-12 -42l-64 -152h-70l110 251l-105 240h70l59 -141l12 -40l13 40l57 141h71l-106 -240l111 -251h-71z" />
    <glyph glyph-name="afii10088" unicode="&#x446;" horiz-adv-x="392" 
d="M322 -134v134h-269v491h70v-430h135v430h69v-430h59v-195h-64z" />
    <glyph glyph-name="afii10089" unicode="&#x447;" horiz-adv-x="345" 
d="M222 0v199q-7 -5 -23.5 -9.5t-35.5 -4.5q-66 0 -96.5 34.5t-30.5 103.5v168h69v-159q0 -47 15.5 -65.5t54.5 -18.5q13 0 27.5 3t19.5 7v233h70v-491h-70z" />
    <glyph glyph-name="afii10090" unicode="&#x448;" horiz-adv-x="536" 
d="M53 0v491h70v-430h110v430h69v-430h111v430h69v-491h-429z" />
    <glyph glyph-name="afii10091" unicode="&#x449;" horiz-adv-x="547" 
d="M477 -134v134h-424v491h70v-430h110v430h69v-430h111v430h69v-430h59v-195h-64z" />
    <glyph glyph-name="afii10092" unicode="&#x44a;" horiz-adv-x="400" 
d="M303 156q0 47 -16 65t-54 18h-56v-178h56q39 0 54.5 17.5t15.5 64.5v13zM373 139q0 -139 -131 -139h-135v430h-99v61h168v-193h66q131 0 131 -139v-20z" />
    <glyph glyph-name="afii10093" unicode="&#x44b;" horiz-adv-x="490" 
d="M250 156q0 47 -16.5 65t-54.5 18h-56v-178h56q39 0 55 17.5t16 64.5v13zM319 139q0 -139 -131 -139h-135v491h70v-193h65q131 0 131 -139v-20zM367 0v491h69v-491h-69z" />
    <glyph glyph-name="afii10094" unicode="&#x44c;" horiz-adv-x="348" 
d="M250 156q0 47 -16.5 65t-54.5 18h-56v-178h56q39 0 55 17.5t16 64.5v13zM319 139q0 -139 -131 -139h-135v491h70v-193h65q131 0 131 -139v-20z" />
    <glyph glyph-name="afii10095" unicode="&#x44d;" horiz-adv-x="340" 
d="M302 164q0 -45 -10.5 -77t-29 -53t-44 -30.5t-54.5 -9.5q-66 0 -99.5 39t-36.5 99h69q2 -38 18 -58t50 -20q15 0 27.5 5t21.5 18t14 34.5t5 53.5v56h-120v55h120v49q0 63 -18.5 86t-49.5 23q-35 0 -50 -18.5t-17 -56.5h-69q3 71 39 104t96 33q29 0 54.5 -10t44 -31
t29 -53t10.5 -76v-162z" />
    <glyph glyph-name="afii10096" unicode="&#x44e;" horiz-adv-x="509" 
d="M402 324q0 63 -18.5 86t-53.5 23t-53.5 -23t-18.5 -86v-158q0 -64 18.5 -87t53.5 -23t53.5 23t18.5 87v158zM471 162q0 -89 -39 -128.5t-102 -39.5q-64 0 -103 39.5t-39 128.5v55h-65v-217h-70v491h70v-212h65v49q0 87 39 127.5t103 40.5q63 0 102 -40.5t39 -127.5v-166z
" />
    <glyph glyph-name="afii10097" unicode="&#x44f;" horiz-adv-x="364" 
d="M241 433h-67q-35 0 -50.5 -18.5t-15.5 -60.5v-21q0 -42 17 -59.5t49 -17.5h67v177zM240 0v199h-57l-84 -199h-73l88 209q-35 14 -54.5 45.5t-19.5 79.5v31q0 57 31 91.5t93 34.5h146v-491h-70z" />
    <glyph glyph-name="afii10071" unicode="&#x451;" horiz-adv-x="355" 
d="M249 325q0 63 -17 86.5t-53 23.5q-35 0 -54 -23.5t-19 -90.5v-42h143v46zM106 224v-52q0 -68 20 -92.5t55 -24.5q34 0 49.5 17t17.5 59h67q-3 -64 -35.5 -100.5t-98.5 -36.5q-64 0 -103.5 40.5t-39.5 133.5v154q0 92 39 132.5t102 40.5q66 0 102 -40t36 -129v-102h-211z
M159 619q0 -20 -13 -33.5t-32 -13.5t-32 13.5t-13 31.5q0 19 13 32t32 13q18 0 31.5 -13t13.5 -30zM297 619q0 -20 -13 -33.5t-32 -13.5t-32 13.5t-13 31.5q0 19 13 32t31 13t32 -13t14 -30z" />
    <glyph glyph-name="afii10099" unicode="&#x452;" horiz-adv-x="378" 
d="M327 1q0 -54 -26 -87t-83 -33h-24v63h16q27 0 37.5 15t10.5 45v261q0 43 -15 60.5t-47 17.5q-35 0 -54 -18.5t-19 -60.5v-264h-70v482h-36v54h36v176h70v-176h154v-54h-154v-125q12 20 33.5 35.5t59.5 15.5q58 0 84.5 -35t26.5 -92v-280z" />
    <glyph glyph-name="afii10100" unicode="&#x453;" horiz-adv-x="294" 
d="M123 430v-430h-70v491h233v-61h-163zM153 548h-53l76 136h74z" />
    <glyph glyph-name="afii10101" unicode="&#x454;" horiz-adv-x="340" 
d="M312 132q-3 -60 -36.5 -99t-99.5 -39q-29 0 -54.5 9.5t-44 30.5t-29 53t-10.5 77v162q0 44 10.5 76t29 53t44 31t54.5 10q60 0 96 -33t39 -104h-69q-2 38 -17 56.5t-50 18.5q-31 0 -49.5 -23t-18.5 -86v-49h120v-55h-120v-56q0 -32 5 -53.5t14 -34.5t21.5 -18t27.5 -5
q34 0 50 20t18 58h69z" />
    <glyph glyph-name="afii10102" unicode="&#x455;" horiz-adv-x="329" 
d="M292 140q0 -76 -33 -111t-96 -35q-64 0 -95 34.5t-35 99.5h68q2 -39 16 -56t46 -17q36 0 49.5 20.5t13.5 62.5q0 36 -9 51t-39 25l-44 14q-26 8 -43.5 18.5t-29 26.5t-16.5 37.5t-5 52.5q0 70 35.5 101.5t89.5 31.5q53 0 87.5 -28.5t36.5 -94.5h-66q-2 37 -16.5 50
t-41.5 13q-33 0 -46 -16.5t-13 -55.5q0 -36 9.5 -51.5t37.5 -23.5l43 -13q24 -7 42 -16.5t30 -25t18 -38t6 -56.5z" />
    <glyph glyph-name="afii10103" unicode="&#x456;" horiz-adv-x="191" 
d="M60 0v491h71v-491h-71zM143 671q0 -20 -13.5 -34.5t-33.5 -14.5t-34 14t-14 33q0 20 14 34t33 14q20 0 34 -13.5t14 -32.5z" />
    <glyph glyph-name="afii10104" unicode="&#x457;" horiz-adv-x="191" 
d="M60 0v491h71v-491h-71zM72 673q0 -20 -13 -33.5t-31 -13.5q-19 0 -32.5 13.5t-13.5 31.5q0 19 13.5 32t31.5 13t31.5 -13t13.5 -30zM210 673q0 -20 -13 -33.5t-32 -13.5t-32 13.5t-13 31.5q0 19 13 32t31 13t32 -13t14 -30z" />
    <glyph glyph-name="afii10105" unicode="&#x458;" horiz-adv-x="192" 
d="M135 -101q0 -54 -26.5 -86.5t-83.5 -32.5h-24v62h15q28 0 38.5 15t10.5 45v589h70v-592zM146 671q0 -20 -13.5 -34.5t-33.5 -14.5t-34 14t-14 33q0 20 13.5 34t33.5 14q19 0 33.5 -13.5t14.5 -32.5z" />
    <glyph glyph-name="afii10106" unicode="&#x459;" horiz-adv-x="555" 
d="M456 147q0 47 -16 64.5t-54 17.5h-57v-169h57q39 0 54.5 17.5t15.5 64.5v5zM526 139q0 -139 -131 -139h-135v433h-109l-6 -258q-1 -32 -6 -63.5t-18.5 -56t-37 -40t-60.5 -15.5h-23v60h9q40 0 54 33t16 96l7 302h243v-202h66q131 0 131 -139v-11z" />
    <glyph glyph-name="afii10107" unicode="&#x45a;" horiz-adv-x="550" 
d="M454 147q0 47 -16 64.5t-54 17.5h-57v-169h57q39 0 54.5 17.5t15.5 64.5v5zM524 139q0 -139 -131 -139h-135v229h-135v-229h-70v491h70v-202h135v202h69v-202h66q131 0 131 -139v-11z" />
    <glyph glyph-name="afii10108" unicode="&#x45b;" horiz-adv-x="378" 
d="M258 0v265q0 43 -15 60.5t-47 17.5q-35 0 -54 -18.5t-19 -60.5v-264h-70v482h-36v54h36v176h70v-176h154v-54h-154v-125q12 20 33.5 35.5t59.5 15.5q58 0 84.5 -35t26.5 -92v-281h-69z" />
    <glyph glyph-name="afii10109" unicode="&#x45c;" horiz-adv-x="359" 
d="M272 0l-110 221l-40 -66v-155h-69v491h69v-223l135 223h72l-122 -204l140 -287h-75zM174 548h-54l77 136h74z" />
    <glyph glyph-name="afii10110" unicode="&#x45e;" horiz-adv-x="306" 
d="M160 -111q-6 -23 -12.5 -39.5t-16.5 -28.5q-15 -17 -39 -24.5t-48 -7.5h-17v65h14q27 0 37.5 12.5t19.5 48.5l25 101l-118 475h71l69 -308l12 -68l13 68l69 308h71zM277 676q-6 -57 -39.5 -86t-83.5 -29q-49 0 -81.5 27.5t-39.5 87.5h55q3 -27 19.5 -45t48.5 -18
q31 0 47 18.5t19 44.5h55z" />
    <glyph glyph-name="afii10193" unicode="&#x45f;" horiz-adv-x="381" 
d="M223 0v-134h-64v134h-106v491h70v-430h135v430h69v-491h-104z" />
    <glyph glyph-name="afii10050" unicode="&#x490;" horiz-adv-x="382" 
d="M134 645v-645h-74v712h229v161h69v-228h-224z" />
    <glyph glyph-name="afii10098" unicode="&#x491;" horiz-adv-x="294" 
d="M123 430v-430h-70v491h168v134h65v-195h-163z" />
    <glyph glyph-name="endash" unicode="&#x2013;" horiz-adv-x="500" 
d="M0 237v64h500v-64h-500z" />
    <glyph glyph-name="emdash" unicode="&#x2014;" horiz-adv-x="1000" 
d="M0 237v64h1000v-64h-1000z" />
    <glyph glyph-name="quoteleft" unicode="&#x2018;" horiz-adv-x="212" 
d="M128 539h-81l68 173h54z" />
    <glyph glyph-name="quoteright" unicode="&#x2019;" horiz-adv-x="212" 
d="M84 539h-55l42 173h81z" />
    <glyph glyph-name="quotesinglbase" unicode="&#x201a;" horiz-adv-x="212" 
d="M102 -88h-55l41 173h81z" />
    <glyph glyph-name="quotedblleft" unicode="&#x201c;" horiz-adv-x="356" 
d="M127 539h-81l67 173h55zM269 539h-82l68 173h55z" />
    <glyph glyph-name="quotedblright" unicode="&#x201d;" horiz-adv-x="356" 
d="M83 539h-55l42 173h81zM225 539h-55l41 173h81z" />
    <glyph glyph-name="quotedblbase" unicode="&#x201e;" horiz-adv-x="356" 
d="M101 -88h-55l41 173h81zM242 -88h-54l41 173h81z" />
    <glyph glyph-name="dagger" unicode="&#x2020;" horiz-adv-x="457" 
d="M264 444v-444h-73v444h-143v65h143v203h73v-203h145v-65h-145z" />
    <glyph glyph-name="daggerdbl" unicode="&#x2021;" horiz-adv-x="457" 
d="M264 -16v-203h-73v203h-143v65h143v395h-143v65h143v203h73v-203h145v-65h-145v-395h145v-65h-145z" />
    <glyph glyph-name="bullet" unicode="&#x2022;" horiz-adv-x="296" 
d="M251 358q0 -21 -8 -39.5t-22 -33t-33 -22.5t-40 -8t-40 8t-33 22.5t-22 33t-8 39.5t8 40t22 33t33 22t40 8t40 -8t33 -22t22 -33t8 -40z" />
    <glyph glyph-name="ellipsis" unicode="&#x2026;" horiz-adv-x="611" 
d="M159 47q0 -23 -15 -38t-37 -15q-21 0 -36.5 15t-15.5 37q0 21 15.5 36.5t36.5 15.5q22 0 37 -15.5t15 -35.5zM358 47q0 -23 -15.5 -38t-36.5 -15q-22 0 -37 15t-15 37q0 21 15 36.5t37 15.5q21 0 36.5 -15.5t15.5 -35.5zM555 47q0 -23 -15.5 -38t-36.5 -15q-22 0 -37 15
t-15 37q0 21 15 36.5t37 15.5q21 0 36.5 -15.5t15.5 -35.5z" />
    <glyph glyph-name="perthousand" unicode="&#x2030;" horiz-adv-x="818" 
d="M481 244q0 38 -10.5 55.5t-36.5 17.5t-37 -17.5t-11 -55.5v-126q0 -38 11 -55.5t37 -17.5q47 0 47 73v126zM183 593q0 38 -11 56t-37 18t-36.5 -17.5t-10.5 -56.5v-125q0 -38 10.5 -55.5t36.5 -17.5t37 17.5t11 55.5v125zM729 244q0 38 -10.5 55.5t-36.5 17.5t-37 -17.5
t-11 -55.5v-126q0 -38 11 -55.5t37 -17.5t36.5 17.5t10.5 55.5v126zM536 118q0 -62 -27 -93.5t-75 -31.5t-75 31.5t-27 93.5v126q0 63 27 94t75 31t75 -31t27 -94v-126zM196 0h-56l231 712h57zM237 467q0 -62 -26.5 -93t-75.5 -31q-48 0 -74.5 31t-26.5 93v127
q0 62 26.5 93.5t74.5 31.5q49 0 75.5 -31.5t26.5 -93.5v-127zM784 118q0 -62 -27 -93.5t-75 -31.5t-75 31.5t-27 93.5v126q0 63 27 94t75 31t75 -31t27 -94v-126z" />
    <glyph glyph-name="guilsinglleft" unicode="&#x2039;" horiz-adv-x="258" 
d="M27 268l191 191v-89l-102 -102l102 -103v-89z" />
    <glyph glyph-name="guilsinglright" unicode="&#x203a;" horiz-adv-x="258" 
d="M40 76v89l103 103l-103 102v89l191 -191z" />
    <glyph glyph-name="afii61352" unicode="&#x2116;" horiz-adv-x="733" 
d="M631 352q0 38 -10.5 55.5t-36.5 17.5t-36.5 -17.5t-10.5 -55.5v-92q0 -38 10.5 -55.5t36.5 -17.5t36.5 17.5t10.5 55.5v92zM362 0l-207 497l-20 57l3 -63v-491h-70v712h68l206 -495l20 -61l-2 66v490h69v-712h-67zM482 0v61h204v-61h-204zM686 259q0 -61 -26.5 -92.5
t-75.5 -31.5q-48 0 -75 31.5t-27 92.5v93q0 63 27 94t75 31q49 0 75.5 -31t26.5 -94v-93z" />
    <glyph glyph-name="trademark" unicode="&#x2122;" horiz-adv-x="833" 
d="M212 659v-374h-58v374h-118v53h295v-53h-119zM724 285v307l-101 -201h-57l-101 201v-307h-59v427h59l129 -258l130 258h58v-427h-58z" />
    <glyph glyph-name="radical" unicode="&#x221a;" horiz-adv-x="539" 
d="M422 643l-211 -643h-62l-120 364h78l73 -227l184 575h147v-69h-89z" />
    <glyph glyph-name="infinity" unicode="&#x221e;" horiz-adv-x="808" 
d="M358 266q-14 16 -28 33t-30 30.5t-34 22t-39 8.5q-39 0 -64.5 -26t-25.5 -68q0 -41 25 -66.5t65 -25.5q21 0 39 8t34 21.5t30 29.5t28 33zM671 266q0 41 -25 67t-65 26q-21 0 -39 -8.5t-34 -22t-30.5 -30t-27.5 -32.5q14 -17 28 -33t30 -29.5t34 -21.5t39 -8
q40 0 65 25.5t25 66.5zM741 267q0 -35 -12 -64.5t-33 -50.5t-50 -32.5t-64 -11.5q-30 0 -55 8t-46 22t-39.5 33t-37.5 41q-18 -21 -37 -40.5t-40 -33.5t-46 -22.5t-55 -8.5q-35 0 -64 12t-50 33t-33 50.5t-12 64.5t12 64.5t33 50.5t50 33t64 12q30 0 54.5 -8.5t46 -23
t40.5 -33.5t37 -40q19 21 37.5 40.5t39.5 33.5t46 22.5t55 8.5q34 0 63.5 -12t50.5 -33t33 -50.5t12 -64.5z" />
    <glyph glyph-name="approxequal" unicode="&#x2248;" 
d="M351 211q-19 -30 -42 -51.5t-64 -21.5q-22 0 -38.5 8.5t-32.5 18.5q-15 10 -28 18t-27 8q-20 0 -33 -10.5t-27 -33.5l-48 34q19 30 42 51.5t64 21.5q23 0 40 -8.5t33 -19.5q14 -10 26.5 -17.5t26.5 -7.5q20 0 33 10t27 33zM351 364q-19 -30 -42 -51.5t-64 -21.5
q-22 0 -38.5 8.5t-32.5 18.5q-15 10 -28 18t-27 8q-20 0 -33 -10t-27 -33l-48 33q19 30 42 51.5t64 21.5q23 0 40 -8.5t33 -19.5q14 -10 26.5 -17.5t26.5 -7.5q20 0 33 10.5t27 33.5z" />
    <glyph glyph-name="notequal" unicode="&#x2260;" 
d="M164 152l-62 -121l-55 28l49 93h-61v64h92l55 106h-147v65h178l53 101l55 -26l-39 -75h44v-65h-78l-52 -106h130v-64h-162z" />
    <glyph glyph-name="lessequal" unicode="&#x2264;" 
d="M31 -5v68h299v-68h-299zM31 291v72l299 109v-72l-205 -73l205 -73v-72z" />
    <glyph glyph-name="greaterequal" unicode="&#x2265;" 
d="M31 -5v68h299v-68h-299zM31 182v72l205 73l-205 73v72l299 -109v-72z" />
    <glyph glyph-name="hyphenminus" horiz-adv-x="272" 
d="M47 238v63h178v-63h-178z" />
    <glyph glyph-name="afii10055" horiz-adv-x="214" 
d="M70 0v712h74v-712h-74z" />
  </font>
</defs>
</svg>
